<svg width="72" height="70" viewBox="0 0 72 70" fill="none" xmlns="http://www.w3.org/2000/svg">
<path d="M64.2431 53.9234C68.5202 53.9234 72 50.4444 72 46.168V7.86313C72 3.58673 68.5202 0.107666 64.2431 0.107666H7.75688C3.47977 0.107666 0 3.58673 0 7.86313V26.3649C0 26.9474 0.472219 27.4196 1.05469 27.4196C1.6373 27.4196 2.10938 26.9474 2.10938 26.3649V7.86313C2.10938 4.74984 4.64288 2.21704 7.75688 2.21704H64.2431C67.3573 2.21704 69.8906 4.74984 69.8906 7.86313V38.3605H64.2656V20.3187C64.2656 19.7362 63.7934 19.264 63.2109 19.264C62.6285 19.264 62.1562 19.7362 62.1562 20.3187V38.3605H9.84375V9.95099H62.1562V16.1C62.1562 16.6824 62.6285 17.1546 63.2109 17.1546C63.7934 17.1546 64.2656 16.6824 64.2656 16.1V8.89631C64.2656 8.31384 63.7934 7.84162 63.2109 7.84162H8.78906C8.20659 7.84162 7.73438 8.31384 7.73438 8.89631V38.3605H2.10938V30.5836C2.10938 30.0012 1.6373 29.5289 1.05469 29.5289C0.472219 29.5289 0 30.0012 0 30.5836V46.168C0 50.4444 3.47977 53.9234 7.75688 53.9234H26.274V59.0906H26.0464C23.0684 59.0906 20.6456 61.5134 20.6456 64.4914C20.6456 67.4694 23.0684 69.8923 26.0464 69.8923H45.9534C48.9315 69.8923 51.3543 67.4694 51.3543 64.4914C51.3543 61.5134 48.9315 59.0906 45.9534 59.0906H45.7259V53.9234H64.2431ZM2.10938 46.168V40.4698H69.8906V46.168C69.8906 49.2813 67.3571 51.8141 64.2431 51.8141H7.75688C4.64288 51.8141 2.10938 49.2813 2.10938 46.168ZM49.245 64.4914C49.245 66.3063 47.7685 67.7829 45.9536 67.7829H26.0464C24.2315 67.7829 22.755 66.3063 22.755 64.4914C22.755 62.6765 24.2315 61.1999 26.0464 61.1999H45.9534C47.7685 61.1999 49.245 62.6765 49.245 64.4914ZM43.6167 59.0906H28.3835V53.9234H43.6167V59.0906Z" fill="black"/>
<path d="M37.1649 5.02936C37.1649 4.386 36.6435 3.86443 36.0001 3.86443C35.3568 3.86443 34.8353 4.386 34.8353 5.02936C34.8353 5.67272 35.3568 6.19416 36.0001 6.19416C36.6435 6.19416 37.1649 5.67258 37.1649 5.02936Z" fill="black"/>
<path d="M23.0981 43.1098C22.5156 43.1098 22.0434 43.582 22.0434 44.1645V46.6437C22.0434 47.2261 22.5156 47.6984 23.0981 47.6984C23.6806 47.6984 24.1528 47.2261 24.1528 46.6437V44.1645C24.1528 43.582 23.6806 43.1098 23.0981 43.1098Z" fill="black"/>
<path d="M48.9019 47.6984C49.4844 47.6984 49.9566 47.2261 49.9566 46.6437V44.1645C49.9566 43.582 49.4844 43.1098 48.9019 43.1098C48.3194 43.1098 47.8472 43.582 47.8472 44.1645V46.6437C47.8472 47.2261 48.3194 47.6984 48.9019 47.6984Z" fill="black"/>
<path d="M36 49.1743C37.6085 49.1743 39.1381 48.4776 40.1967 47.2629C40.5793 46.8237 40.5336 46.1576 40.0944 45.7748C39.6553 45.3923 38.9891 45.4378 38.6063 45.877C37.9485 46.632 36.9984 47.0649 36 47.0649C35.0016 47.0649 34.0515 46.6319 33.3937 45.877C33.011 45.4378 32.3447 45.3921 31.9056 45.7748C31.4664 46.1576 31.4207 46.8237 31.8033 47.2629C32.8621 48.4776 34.3917 49.1743 36 49.1743Z" fill="black"/>
<path d="M37.2127 13.9782H34.7872C33.3623 13.9782 32.1355 14.9454 31.8036 16.3303C31.4395 17.8497 30.6063 20.7891 29.1165 23.4032C28.1328 25.1292 28.3697 27.3246 29.7057 28.8662C30.7268 30.0442 31.3859 31.664 31.5616 33.4269C31.6784 34.6006 32.6534 35.4855 33.8294 35.4855H38.1705C39.3466 35.4855 40.3215 34.6006 40.4384 33.4269C40.614 31.6639 41.273 30.0443 42.2942 28.8662C43.6303 27.3248 43.8671 25.1292 42.8834 23.4032C41.3938 20.7891 40.5606 17.8497 40.1965 16.3303C39.8646 14.9454 38.6377 13.9782 37.2127 13.9782ZM40.7002 27.4847C39.3962 28.9891 38.5578 31.0252 38.3394 33.218C38.3304 33.3082 38.2579 33.3762 38.1705 33.3762H33.8294C33.7421 33.3762 33.6695 33.3081 33.6605 33.2178C33.4421 31.025 32.6036 28.9889 31.2997 27.4845C30.5486 26.618 30.4077 25.3975 30.9491 24.4475C32.4872 21.7486 33.3782 18.8109 33.8547 16.8216C33.9584 16.3894 34.3417 16.0874 34.7871 16.0874H34.9451V22.2391C34.3738 22.593 33.9919 23.2239 33.9919 23.9454C33.9919 25.0544 34.8909 25.9534 35.9998 25.9534C37.1088 25.9534 38.0078 25.0544 38.0078 23.9454C38.0078 23.2239 37.626 22.5932 37.0545 22.2391V16.0874H37.2126C37.6579 16.0874 38.0414 16.3894 38.1449 16.8216C38.6215 18.8109 39.5127 21.7486 41.0505 24.4475C41.5922 25.3977 41.4513 26.6181 40.7002 27.4847Z" fill="black"/>
</svg>
