<svg width="72" height="72" viewBox="0 0 72 72" fill="none" xmlns="http://www.w3.org/2000/svg">
<path d="M13.6851 71.9973C14.2674 71.9973 14.7398 71.5254 14.7398 70.9426V44.1332C14.7398 42.5561 13.4566 41.2729 11.879 41.2729H2.86084C1.2832 41.2729 0 42.5561 0 44.1332V70.9426C0 71.5254 0.472412 71.9973 1.05469 71.9973H13.6851ZM2.10938 44.1332C2.10938 43.719 2.44611 43.3823 2.86084 43.3823H11.879C12.2932 43.3823 12.6299 43.719 12.6299 44.1332V69.8879H2.10938V44.1332Z" fill="black"/>
<path d="M21.9474 34.1999C20.3703 34.1999 19.0871 35.4831 19.0871 37.0607V70.9426C19.0871 71.5254 19.559 71.9973 20.1418 71.9973H32.7717C33.3545 71.9973 33.8264 71.5254 33.8264 70.9426V37.0607C33.8264 35.4831 32.5432 34.1999 30.9661 34.1999H21.9474ZM31.717 37.0607V69.8879H21.1959V37.0607C21.1959 36.6465 21.5332 36.3093 21.9474 36.3093H30.9655C31.3802 36.3093 31.717 36.6465 31.717 37.0607Z" fill="black"/>
<path d="M52.9135 70.9426V29.9883C52.9135 28.4106 51.6302 27.1274 50.0526 27.1274H41.0345C39.4568 27.1274 38.1736 28.4106 38.1736 29.9883V70.9426C38.1736 71.5254 38.6461 71.9973 39.2283 71.9973H51.8588C52.441 71.9973 52.9135 71.5254 52.9135 70.9426ZM50.8041 69.8879H40.283V29.9883C40.283 29.5741 40.6198 29.2368 41.0345 29.2368H50.0526C50.4668 29.2368 50.8035 29.5741 50.8035 29.9883V69.8879H50.8041Z" fill="black"/>
<path d="M58.3154 71.9973H70.9453C71.5276 71.9973 72 71.5254 72 70.9426V22.9153C72 21.3382 70.7168 20.055 69.1392 20.055H60.121C58.5439 20.055 57.2607 21.3382 57.2607 22.9153V70.9426C57.2607 71.5254 57.7326 71.9973 58.3154 71.9973ZM59.3701 22.9153C59.3701 22.5011 59.7068 22.1644 60.121 22.1644H69.1392C69.5533 22.1644 69.8906 22.5011 69.8906 22.9153V69.8879H59.3701V22.9153Z" fill="black"/>
<path d="M62.2447 14.976C62.7231 15.6648 63.5361 16.018 64.3661 15.8988C65.1962 15.7791 65.8762 15.2105 66.141 14.4151L69.7456 3.58151C69.9664 2.91684 69.8643 2.20602 69.4644 1.63089C69.065 1.05575 68.4344 0.711879 67.7346 0.68716L56.3247 0.282863C55.4832 0.252101 54.7163 0.692104 54.3142 1.42819C53.9127 2.16427 53.9604 3.04922 54.4389 3.73806L55.6304 5.45358C49.4648 9.01095 34.9316 16.1933 15.1298 18.296C14.5503 18.3576 14.1306 18.8772 14.1921 19.4562C14.2498 19.9978 14.7074 20.3999 15.2397 20.3994C15.277 20.3994 15.3144 20.3977 15.3523 20.3939C36.702 18.1269 52.0708 10.0558 57.6876 6.69064C58.2034 6.38192 58.355 5.6788 58.0117 5.18441C58.0117 5.18441 56.2044 2.58285 56.1714 2.53561C56.1264 2.47079 56.1736 2.38949 56.2495 2.39059C56.2495 2.39059 67.6126 2.79324 67.6599 2.79489C67.7208 2.79708 67.7626 2.85806 67.7439 2.91574C67.7439 2.91574 64.1453 13.7312 64.1393 13.7488C64.1157 13.8208 64.019 13.8334 63.9767 13.7724L62.3447 11.423C62.0261 10.9638 61.4053 10.8336 60.9291 11.1242C58.4687 12.6271 54.3538 14.9221 48.7183 17.3221C48.1822 17.5506 47.9328 18.1697 48.1613 18.7058C48.3898 19.242 49.0089 19.4914 49.545 19.2628C54.691 17.0711 58.6038 14.9595 61.1757 13.4373L62.2447 14.976Z" fill="black"/>
<path d="M11.0918 20.7592C11.673 20.7213 12.113 20.2187 12.0745 19.6375C12.0366 19.0564 11.5334 18.6169 10.9528 18.6548C8.66382 18.8053 6.35944 18.8822 4.10339 18.8822C3.52057 18.8822 3.04871 19.3541 3.04871 19.9369V27.5147C3.04871 28.097 3.52057 28.5694 4.10339 28.5694C21.5667 28.5694 36.1379 24.4397 45.2862 20.9757C45.8311 20.7697 46.1058 20.1605 45.8992 19.6161C45.6932 19.0712 45.084 18.7965 44.5397 19.0031C35.7402 22.3347 21.8342 26.2936 5.15808 26.4546V20.9861C7.12079 20.9658 9.11206 20.89 11.0918 20.7592Z" fill="black"/>
</svg>
