<svg width="54" height="72" viewBox="0 0 54 72" fill="none" xmlns="http://www.w3.org/2000/svg">
<path d="M18.2181 40.7812C17.6356 40.7812 17.1634 41.2535 17.1634 41.8359V43.5234C17.1634 44.1059 17.6356 44.5781 18.2181 44.5781C18.8006 44.5781 19.2728 44.1059 19.2728 43.5234V41.8359C19.2728 41.2535 18.8006 40.7812 18.2181 40.7812Z" fill="black"/>
<path d="M35.7819 44.5781C36.3644 44.5781 36.8366 44.1059 36.8366 43.5234V41.8359C36.8366 41.2535 36.3644 40.7812 35.7819 40.7812C35.1994 40.7812 34.7272 41.2535 34.7272 41.8359V43.5234C34.7272 44.1059 35.1994 44.5781 35.7819 44.5781Z" fill="black"/>
<path d="M28.5203 42.7094C28.1364 43.1499 27.5823 43.4024 27 43.4024C26.4177 43.4024 25.8636 43.1499 25.4797 42.7094C25.0971 42.2703 24.4307 42.2246 23.9916 42.6073C23.5524 42.9901 23.5067 43.6563 23.8895 44.0954C24.6741 44.9956 25.8078 45.512 26.9999 45.512C28.1919 45.512 29.3257 44.9957 30.1102 44.0954C30.493 43.6563 30.4471 42.9901 30.0081 42.6073C29.5692 42.2246 28.9029 42.2701 28.5203 42.7094Z" fill="black"/>
<path d="M50.3949 34.8594C50.4122 34.3932 48.8235 28.8759 44.3922 24.1395V19.3816L50.0318 16.9675C53.4476 15.5052 53.4414 10.6701 50.0317 9.21094L29.9053 0.595688C28.9821 0.200391 28.0046 0 27 0C25.9954 0 25.0179 0.200391 24.0948 0.595688L13.2654 5.23125C12.7299 5.46047 12.4816 6.08034 12.7108 6.61584C12.94 7.15148 13.56 7.39997 14.0954 7.17033L24.9249 2.53477C25.5843 2.25253 26.2824 2.10938 27 2.10938C27.7176 2.10938 28.4157 2.25253 29.0752 2.53477L49.2019 11.1502C50.9141 11.8828 50.9127 14.2959 49.2019 15.0283L29.0751 23.6437C27.785 24.1962 26.2876 24.2269 24.9248 23.6436L4.79827 15.0283C3.0863 14.2958 3.08742 11.8827 4.79827 11.15L10.2171 8.83055C10.7526 8.60133 11.001 7.98145 10.7717 7.44595C10.5425 6.91031 9.92236 6.66183 9.38714 6.89147L3.96816 9.21094C0.697922 10.611 0.544219 15.1338 3.6038 16.7891V18.8124C1.98267 19.2727 0.791297 20.7655 0.791297 22.5322C0.791297 24.6645 2.52605 26.3994 4.65848 26.3994C6.79092 26.3994 8.52567 24.6645 8.52567 22.5322C8.52567 20.7655 7.3343 19.2728 5.71317 18.8124V17.7145L9.60694 19.3814L9.60581 24.1401C5.46961 28.5618 3.58945 34.1189 3.60422 34.8414C1.76119 35.9103 0.632812 37.8534 0.632812 40.0078C0.632812 41.7275 1.36336 43.2799 2.52998 44.3711C3.06295 54.2036 7.84308 63.1142 15.1296 67.8888C15.0764 68.3513 15.047 68.8177 15.047 69.2831V70.9453C15.047 71.5279 15.5192 72 16.1017 72H37.8986C38.4812 72 38.9533 71.5279 38.9533 70.9453V69.2831C38.9533 68.8185 38.9239 68.3529 38.8709 67.8911C40.29 66.9611 41.6339 65.8624 42.8725 64.6176C43.2834 64.2046 43.2817 63.5369 42.8688 63.1261C42.4557 62.7152 41.7877 62.7169 41.3774 63.1298C40.4431 64.0687 39.4445 64.9147 38.3977 65.6589C38.0167 64.4496 37.4445 63.2994 36.7051 62.2628C36.7668 61.2383 36.2744 60.2752 35.4232 59.7226C41.5399 57.1127 45.8769 51.9231 47.6011 45.9809C48.1783 45.9608 48.7343 45.8574 49.259 45.6844C48.7403 51.0034 46.9357 55.9346 43.9885 60.0403C43.6489 60.5135 43.757 61.1726 44.2302 61.5122C44.7052 61.8528 45.3634 61.7424 45.7021 61.2705C49.1473 56.4711 51.1374 50.6358 51.4733 44.369C52.6383 43.2778 53.3675 41.7265 53.3675 40.0081C53.3672 37.9901 52.3554 35.9567 50.3949 34.8594ZM6.4163 22.5322C6.4163 23.5015 5.62781 24.29 4.65848 24.29C3.68916 24.29 2.90067 23.5015 2.90067 22.5322C2.90067 21.5629 3.68916 20.7744 4.65848 20.7744C5.62781 20.7744 6.4163 21.5629 6.4163 22.5322ZM11.7162 20.284L24.0948 25.5828C25.9051 26.3576 28.002 26.3981 29.9053 25.5828L42.283 20.2846V23.9469C33.0698 29.1272 21.4415 29.4166 11.7153 23.9476L11.7162 20.284ZM10.8634 25.8865C15.2016 28.2901 20.036 29.6916 24.995 29.9897C20.9713 35.1546 14.7008 38.5942 7.69528 38.9239C7.7625 37.7115 7.94109 36.5099 8.2312 35.3396C8.30925 35.0249 8.23795 34.6916 8.03813 34.436C7.72102 34.0307 7.32052 34.0318 7.02928 34.0304C6.73467 34.028 6.39689 34.0262 6.01945 34.0616C7.0913 31.0283 8.74631 28.2327 10.8634 25.8865ZM2.74219 40.0078C2.74219 38.0648 4.15223 36.5214 5.89092 36.207C5.66747 37.4569 5.55469 38.73 5.55469 40.0078V40.0084V40.0085V40.0087C5.55469 41.285 5.66789 42.5576 5.89163 43.8082C4.10105 43.4708 2.74219 41.895 2.74219 40.0078ZM15.6026 65.6589C9.59709 61.3903 5.56706 53.9722 4.74328 45.6847C5.26739 45.8575 5.82272 45.9606 6.39914 45.9806C8.12545 51.9297 12.4657 57.115 18.5771 59.7223C17.7261 60.2751 17.2336 61.238 17.2953 62.2624C16.5556 63.2993 15.9836 64.4496 15.6026 65.6589ZM17.1562 69.8906V69.2831C17.1562 68.7015 17.2069 68.1175 17.3069 67.547C17.5002 66.4435 17.8854 65.3743 18.4361 64.3946L22.1154 67.6417C22.1203 68.5102 22.501 69.3269 23.1389 69.8906H17.1562ZM29.7752 67.1657V67.6245C29.7752 67.9527 29.5979 68.2573 29.3124 68.4194L27 69.7324L24.6876 68.4193C24.4021 68.2573 24.2248 67.9527 24.2248 67.6245V67.1657C24.2248 66.8633 24.0948 66.5752 23.868 66.375L19.6519 62.6542C19.227 62.279 19.3634 61.5852 19.9045 61.4029L20.9597 61.0476C21.8842 63.6858 23.9832 65.819 26.6505 66.7561C26.8768 66.8355 27.123 66.8357 27.3497 66.7561C30.0171 65.819 32.1159 63.6858 33.0405 61.0476L34.0959 61.4029C34.6365 61.5852 34.774 62.2787 34.3484 62.6542L30.132 66.375C29.9053 66.5752 29.7752 66.8633 29.7752 67.1657ZM23.2723 61.1221C25.7003 61.5538 28.194 61.5727 30.7278 61.1221C29.9621 62.6922 28.6355 63.9582 27.0001 64.6324C25.3645 63.9584 24.038 62.6923 23.2723 61.1221ZM35.5639 64.3946C36.1147 65.3743 36.4998 66.4435 36.6931 67.547C36.7931 68.1176 36.8438 68.7016 36.8438 69.2833V69.8906H30.8613C31.499 69.3269 31.8797 68.5102 31.8846 67.6417L35.5639 64.3946ZM27 59.3438C16.6691 59.3438 8.23416 51.2972 7.69289 41.0362C15.546 40.6979 22.5963 36.7642 27 30.8406C31.3782 36.73 38.4161 40.6991 46.3071 41.0378C45.764 51.3139 37.3134 59.3438 27 59.3438ZM46.992 34.0312C46.3067 34.0312 45.8037 34.6756 45.9682 35.3396C46.2517 36.4835 46.3164 37.7075 46.3313 38.9256C39.311 38.6041 33.0282 35.154 29.0049 29.9895C33.9628 29.691 38.7967 28.2894 43.1348 25.886C45.2603 28.2409 46.9201 31.048 47.9918 34.0935C47.6719 34.0537 47.3394 34.0312 46.992 34.0312ZM48.1084 43.8082C48.3321 42.5579 48.4452 41.2851 48.4453 40.0085V40.0084C48.4453 40.0084 48.4453 40.0084 48.4453 40.0082C48.4453 40.0081 48.4453 40.0078 48.4453 40.0075C48.4453 38.8409 48.4453 37.5616 48.2829 36.2872C50.3176 36.7816 51.2578 38.4448 51.2578 40.0078C51.2578 41.895 49.8991 43.4707 48.1084 43.8082Z" fill="black"/>
</svg>
