<svg width="72" height="72" viewBox="0 0 72 72" fill="none" xmlns="http://www.w3.org/2000/svg">
<g clip-path="url(#clip0)">
<path d="M15.1533 40.9559V43.3979C15.1533 43.9804 15.6255 44.4526 16.208 44.4526C16.7905 44.4526 17.2627 43.9804 17.2627 43.3979V40.9559C17.2627 40.3734 16.7905 39.9012 16.208 39.9012C15.6255 39.9012 15.1533 40.3734 15.1533 40.9559Z" fill="black"/>
<path d="M40.5706 40.9559V43.3979C40.5706 43.9804 41.0428 44.4526 41.6253 44.4526C42.2078 44.4526 42.68 43.9804 42.68 43.3979V40.9559C42.68 40.3734 42.2078 39.9012 41.6253 39.9012C41.0428 39.9012 40.5706 40.3734 40.5706 40.9559Z" fill="black"/>
<path d="M31.4722 42.6323C30.8271 43.3724 29.8957 43.7969 28.9167 43.7969C27.9377 43.7969 27.0063 43.3724 26.3613 42.6323C25.9785 42.193 25.3124 42.1474 24.8732 42.53C24.434 42.9128 24.3883 43.579 24.771 44.0181C25.8168 45.2181 27.3278 45.9063 28.9166 45.9063C30.5054 45.9063 32.0165 45.2181 33.0622 44.0181C33.4448 43.579 33.3991 42.9128 32.96 42.53C32.5211 42.1474 31.8548 42.1931 31.4722 42.6323Z" fill="black"/>
<path d="M57.3899 11.3636C56.4164 8.8104 53.9435 6.99099 51.0525 6.99099H45.4361C44.8536 6.99099 44.3814 7.46321 44.3814 8.04568C44.3814 8.62815 44.8536 9.10036 45.4361 9.10036H51.0525C53.6482 9.10036 55.7239 11.2193 55.7239 13.7718V35.8489C55.7239 44.0732 50.776 51.7024 42.8642 54.8866H14.9691C11.692 53.5668 8.80003 51.4148 6.59559 48.6533C6.23221 48.1981 5.56861 48.1235 5.11326 48.487C4.65806 48.8504 4.58353 49.514 4.94704 49.9694C6.48773 51.8993 8.33343 53.5591 10.3982 54.8866H4.03832C1.83979 54.8866 0.240746 56.9723 0.814918 59.0966C2.23045 64.3349 7.00875 67.9933 12.4349 67.9933H45.3984C50.8244 67.9933 55.6027 64.3349 57.0184 59.0968C57.5921 56.9742 55.9955 54.8866 53.795 54.8866H47.4401C51.1612 52.4993 54.1028 49.0671 55.9077 44.9832L61.9611 42.4899C68.0595 39.9781 72 34.0932 72 27.4979C72 19.124 65.6399 12.1739 57.3899 11.3636ZM54.9821 58.5465C53.8147 62.8668 49.8736 65.884 45.3985 65.884H12.4349C7.95965 65.884 4.01878 62.8668 2.85131 58.5465C2.64009 57.7648 3.22804 56.9961 4.03832 56.9961H53.795C54.6048 56.9961 55.1935 57.7641 54.9821 58.5465ZM57.8333 21.9339C60.1141 22.7787 61.7175 24.988 61.7175 27.4979C61.7175 29.9108 60.276 32.0636 58.0451 32.9824L57.8333 33.0696V21.9339ZM61.1578 40.5396L56.8973 42.2945C57.9887 38.6198 57.8142 35.6445 57.8333 35.351L58.8483 34.9329C61.8726 33.6872 63.8269 30.7688 63.8269 27.4979C63.8269 23.8341 61.3074 20.6408 57.8333 19.7229V13.7718C57.8333 13.6947 57.832 13.6177 57.8294 13.5406C64.6882 14.5341 69.8906 20.4339 69.8906 27.4979C69.8906 33.2353 66.4627 38.3544 61.1578 40.5396Z" fill="black"/>
<path d="M3.98039 46.7488C4.49705 46.4798 4.69786 45.843 4.42884 45.3262C2.9115 42.4116 2.10938 39.1344 2.10938 35.8489V13.7718C2.10938 11.196 4.20497 9.10038 6.7808 9.10038H13.9603V15.3703H13.8632C11.1178 15.3703 8.88412 17.604 8.88412 20.3495V28.6218C8.88412 31.3672 11.1178 33.6009 13.8632 33.6009H22.1355C24.8809 33.6009 27.1146 31.3672 27.1146 28.6218V20.3495C27.1146 17.604 24.8809 15.3703 22.1355 15.3703H22.0385V9.10038H41.2172C41.7997 9.10038 42.2719 8.62816 42.2719 8.04569C42.2719 7.46323 41.7997 6.99101 41.2172 6.99101H21.898C21.4329 5.27384 19.8617 4.00652 17.9994 4.00652C16.1371 4.00652 14.5659 5.27384 14.1009 6.99101H6.7808C3.04186 6.99101 0 10.0329 0 13.7718V35.8489C0 39.4721 0.884531 43.0861 2.55783 46.3002C2.82656 46.8163 3.46303 47.0181 3.98039 46.7488ZM25.0054 20.3495V28.6218C25.0054 30.2041 23.718 31.4915 22.1356 31.4915H13.8632C12.2809 31.4915 10.9935 30.2041 10.9935 28.6218V20.3495C10.9935 18.7671 12.2809 17.4797 13.8632 17.4797H13.9836C14.4908 22.1764 21.4892 22.3487 22.015 17.4797H22.1354C23.718 17.4797 25.0054 18.7671 25.0054 20.3495ZM16.0696 8.04569C16.0696 6.98159 16.9353 6.1159 17.9994 6.1159C19.0635 6.1159 19.9292 6.98159 19.9292 8.04569V17.043C19.9292 18.3438 18.6633 19.2716 17.4263 18.8859C16.6411 18.6412 16.0698 17.9076 16.0698 17.043V8.04569H16.0696Z" fill="black"/>
</g>
<defs>
<clipPath id="clip0">
<rect width="72" height="72" fill="white"/>
</clipPath>
</defs>
</svg>
