<svg width="72" height="72" viewBox="0 0 72 72" fill="none" xmlns="http://www.w3.org/2000/svg">
<path d="M61.4565 10.5435L61.4564 10.5434C54.6542 3.74442 45.6137 0 36 0C32.0556 0 28.1773 0.6345 24.473 1.88592C23.9212 2.07239 23.6249 2.67089 23.8113 3.2227C23.9978 3.77452 24.5962 4.07081 25.1481 3.88434C28.304 2.81827 31.5946 2.22792 34.9453 2.12555V14.9631C30.17 15.1973 25.5556 17.037 21.87 20.3785L12.7927 11.301C15.3478 8.89917 18.2402 6.91861 21.4033 5.40661C21.9288 5.15545 22.1513 4.52573 21.9 4.00022C21.6488 3.4747 21.0192 3.25209 20.4936 3.50353C16.7971 5.27034 13.4497 7.63903 10.5438 10.5435L10.5436 10.5436L10.5435 10.5438C3.74442 17.3458 0 26.3863 0 36C0 45.6137 3.74442 54.6542 10.5435 61.4562L10.5436 61.4564L10.5438 61.4565C17.3458 68.2556 26.3863 72 36 72C40.2007 72 44.3188 71.2813 48.2399 69.8636C48.7877 69.6656 49.0712 69.0609 48.8731 68.5132C48.675 67.9653 48.0704 67.6818 47.5227 67.88C44.1609 69.0954 40.6444 69.7649 37.0547 69.8746V57.0371C41.9563 56.7966 46.5377 54.8785 50.13 51.6216L59.2073 60.699C56.8284 62.9345 54.1506 64.8093 51.2338 66.2797C50.7136 66.5419 50.5045 67.1761 50.7668 67.6962C51.029 68.2163 51.6632 68.4255 52.1833 68.1632C55.6147 66.4334 58.7344 64.177 61.4562 61.4566L61.4564 61.4565L61.4565 61.4564C68.2556 54.6542 72 45.6135 72 36C72 26.3865 68.2556 17.3458 61.4566 10.5438C61.4565 10.5436 61.4565 10.5436 61.4565 10.5435ZM49.4025 49.4025C45.8229 52.982 41.0632 54.9534 36 54.9534C30.9368 54.9534 26.1771 52.982 22.5975 49.4025C19.0178 45.8231 17.0466 41.0632 17.0466 36C17.0466 30.9368 19.018 26.1771 22.5975 22.5975C26.1769 19.0178 30.9368 17.0466 36 17.0466C41.0632 17.0466 45.8229 19.018 49.4025 22.5975C52.9822 26.1771 54.9536 30.9368 54.9536 36C54.9536 41.0632 52.9822 45.8229 49.4025 49.4025ZM50.13 20.3784C46.5112 17.0973 41.924 15.2018 37.0547 14.9629V2.12527C45.3593 2.37755 53.1534 5.60573 59.2076 11.3008L50.13 20.3784ZM11.3009 12.7924L20.3784 21.87C17.1602 25.4197 15.2062 29.9856 14.9629 34.9453H2.12527C2.37769 26.6407 5.60602 18.8466 11.3009 12.7924ZM14.9629 37.0547C15.1948 41.7814 17.0052 46.4096 20.3784 50.13L15.9303 54.5781L11.3009 59.2076C5.60602 53.1534 2.37769 45.3593 2.12541 37.0547H14.9629ZM21.87 51.6216C25.3873 54.8106 29.935 56.7913 34.9453 57.0371V69.8747C26.6407 69.6225 18.8466 66.3943 12.7924 60.6992L21.87 51.6216ZM60.6992 59.2076L51.6216 50.13C54.8897 46.5255 56.798 41.9382 57.0371 37.0547H69.8746C69.6223 45.3593 66.3941 53.1534 60.6992 59.2076ZM57.0371 34.9453C56.7987 30.0774 54.9006 25.4865 51.6216 21.87L60.6992 12.7924C66.3941 18.8466 69.6225 26.6408 69.8747 34.9453H57.0371Z" fill="black"/>
<path d="M25.9034 30.167C24.0763 30.167 22.5897 31.6534 22.5897 33.4806C22.5897 34.063 23.0619 34.5352 23.6444 34.5352C24.2269 34.5352 24.6991 34.063 24.6991 33.4806C24.6991 32.8165 25.2394 32.2764 25.9034 32.2764C26.5674 32.2764 27.1076 32.8167 27.1076 33.4806C27.1076 34.063 27.5798 34.5352 28.1623 34.5352C28.7447 34.5352 29.217 34.063 29.217 33.4806C29.217 31.6534 27.7305 30.167 25.9034 30.167Z" fill="black"/>
<path d="M46.096 30.167C44.2689 30.167 42.7825 31.6534 42.7825 33.4806C42.7825 34.063 43.2547 34.5352 43.8372 34.5352C44.4196 34.5352 44.8918 34.063 44.8918 33.4806C44.8918 32.8165 45.4321 32.2764 46.096 32.2764C46.7601 32.2764 47.3003 32.8167 47.3003 33.4806C47.3003 34.063 47.7726 34.5352 48.355 34.5352C48.9375 34.5352 49.4097 34.063 49.4097 33.4806C49.4097 31.6534 47.9232 30.167 46.096 30.167Z" fill="black"/>
<path d="M39.0888 35.3259C38.6498 34.9431 37.9835 34.9888 37.6007 35.4279C37.1964 35.8917 36.6128 36.1578 35.9996 36.1578C35.3863 36.1578 34.8027 35.8917 34.3986 35.4279C34.0156 34.9888 33.3496 34.9432 32.9105 35.3257C32.4713 35.7085 32.4256 36.3746 32.8082 36.8138C33.6132 37.7374 34.7764 38.2672 35.9996 38.2672C37.2226 38.2672 38.3858 37.7374 39.1908 36.8138C39.5737 36.3748 39.528 35.7085 39.0888 35.3259Z" fill="black"/>
</svg>
