<svg width="24" height="24" viewBox="0 0 24 24" fill="none" xmlns="http://www.w3.org/2000/svg">
<path fill-rule="evenodd" clip-rule="evenodd" d="M12 24C18.6274 24 24 18.6274 24 12C24 5.37258 18.6274 0 12 0C5.37258 0 0 5.37258 0 12C0 18.6274 5.37258 24 12 24ZM15.4507 9.33484C15.4507 9.53196 15.2909 9.69176 15.0938 9.69176C14.8967 9.69176 14.7369 9.53196 14.7369 9.33484C14.7369 9.13772 14.8967 8.97792 15.0938 8.97792C15.2909 8.97792 15.4507 9.13772 15.4507 9.33484ZM12.2143 9.53571C10.735 9.53571 9.53571 10.735 9.53571 12.2143C9.53571 13.6935 10.735 14.8929 12.2143 14.8929C13.6935 14.8929 14.8929 13.6935 14.8929 12.2143C14.8929 10.735 13.6935 9.53571 12.2143 9.53571ZM12.2143 13.8884C11.2915 13.8884 10.5402 13.1371 10.5402 12.2143C10.5402 11.2908 11.2915 10.5402 12.2143 10.5402C13.1371 10.5402 13.8884 11.2908 13.8884 12.2143C13.8884 13.1371 13.1371 13.8884 12.2143 13.8884ZM10.2054 6.85714H14.2232C16.0721 6.85714 17.5714 8.35647 17.5714 10.2054V14.2232C17.5714 16.0721 16.0721 17.5714 14.2232 17.5714H10.2054C8.35647 17.5714 6.85714 16.0721 6.85714 14.2232V10.2054C6.85714 8.35647 8.35647 6.85714 10.2054 6.85714ZM14.2232 16.567C15.5156 16.567 16.567 15.5156 16.567 14.2232V10.2054C16.567 8.91295 15.5156 7.86161 14.2232 7.86161H10.2054C8.91295 7.86161 7.86161 8.91295 7.86161 10.2054V14.2232C7.86161 15.5156 8.91295 16.567 10.2054 16.567H14.2232Z" fill="#A1A1A7"/>
</svg>
