<svg width="24" height="24" viewBox="0 0 24 24" fill="none" xmlns="http://www.w3.org/2000/svg">
<path fill-rule="evenodd" clip-rule="evenodd" d="M24 12C24 18.6274 18.6274 24 12 24C5.37258 24 0 18.6274 0 12C0 5.37258 5.37258 0 12 0C18.6274 0 24 5.37258 24 12ZM9.63396 15.0341V17.1875C9.63396 17.3379 9.73053 17.4711 9.87353 17.5185C9.90928 17.5301 9.94596 17.5357 9.98218 17.5357C10.0908 17.5357 10.1957 17.4846 10.2626 17.3936L11.5222 15.6795L9.63396 15.0341ZM16.2048 6.89633C16.3209 6.83551 16.4611 6.84573 16.5679 6.92141C16.6747 6.99755 16.7295 7.12662 16.7104 7.25662L15.4337 15.8459C15.4183 15.9476 15.3584 16.0381 15.2702 16.092C15.215 16.1254 15.1523 16.1426 15.0892 16.1426C15.0511 16.1426 15.013 16.1361 14.9768 16.124L10.1097 14.4605L14.8955 8.69451L8.71079 13.9827L5.80669 12.9901C5.67529 12.945 5.5829 12.8262 5.57222 12.6869C5.56201 12.5481 5.6349 12.4162 5.7584 12.3517L16.2048 6.89633Z" fill="#A1A1A7"/>
</svg>
