<svg width="24" height="24" viewBox="0 0 24 24" fill="none" xmlns="http://www.w3.org/2000/svg">
<path fill-rule="evenodd" clip-rule="evenodd" d="M12 24C18.6274 24 24 18.6274 24 12C24 5.37258 18.6274 0 12 0C5.37258 0 0 5.37258 0 12C0 18.6274 5.37258 24 12 24ZM17.7611 15.0376C17.7656 15.0458 17.769 15.052 17.7714 15.0561C18.1936 15.7562 17.3031 15.8112 17.3031 15.8112L15.6011 15.8351C15.6011 15.8351 15.2356 15.9075 14.7545 15.577C14.503 15.4042 14.257 15.1222 14.0227 14.8535C13.6642 14.4425 13.3328 14.0626 13.0501 14.1522C12.5754 14.3027 12.5906 15.3245 12.5906 15.3245C12.5906 15.3245 12.5946 15.5428 12.4862 15.659C12.3692 15.7857 12.139 15.8112 12.139 15.8112H11.3776C11.3776 15.8112 9.6971 15.9123 8.21651 14.3712C6.60292 12.6899 5.17728 9.3552 5.17728 9.3552C5.17728 9.3552 5.09525 9.13697 5.18445 9.03104C5.2848 8.91237 5.55798 8.90441 5.55798 8.90441L7.37865 8.89326C7.37865 8.89326 7.55068 8.92193 7.67333 9.01193C7.77448 9.086 7.83103 9.22458 7.83103 9.22458C7.83103 9.22458 8.12571 9.96925 8.51517 10.6422C9.27578 11.9572 9.6302 12.2447 9.88904 12.1037C10.2658 11.8982 10.1527 10.2456 10.1527 10.2456C10.1527 10.2456 10.1598 9.6451 9.96311 9.37829C9.81099 9.17122 9.52427 9.11069 9.39763 9.09396C9.29489 9.08042 9.46294 8.84229 9.68117 8.73556C10.0085 8.57548 10.5875 8.56592 11.2709 8.57309C11.8037 8.57866 11.9566 8.61211 12.1653 8.66229C12.6486 8.77883 12.6336 9.15283 12.6011 9.96001C12.5915 10.2009 12.5802 10.4804 12.5802 10.8031C12.5802 10.8759 12.5781 10.9536 12.5759 11.0335C12.5645 11.4465 12.5515 11.9195 12.8231 12.095C12.9625 12.185 13.3042 12.1085 14.1572 10.6598C14.5618 9.97324 14.8652 9.16564 14.8652 9.16564C14.8652 9.16564 14.9313 9.02228 15.0341 8.96016C15.14 8.89724 15.2818 8.91636 15.2818 8.91636L17.1964 8.90521C17.1964 8.90521 17.7722 8.83671 17.8654 9.09635C17.9634 9.36874 17.6504 10.0059 16.8675 11.0492C16.124 12.04 15.7626 12.404 15.7964 12.7264C15.8211 12.9615 16.0559 13.1745 16.5059 13.5923C17.4522 14.4706 17.7027 14.9303 17.7611 15.0376Z" fill="#A1A1A7"/>
</svg>
