<svg width="24" height="24" viewBox="0 0 24 24" fill="none" xmlns="http://www.w3.org/2000/svg">
<path fill-rule="evenodd" clip-rule="evenodd" d="M12 24C18.6274 24 24 18.6274 24 12C24 5.37258 18.6274 0 12 0C5.37258 0 0 5.37258 0 12C0 18.6274 5.37258 24 12 24ZM15.8679 8.59286C16.51 8.62902 16.8254 8.72411 17.1161 9.24107C17.4188 9.75737 17.5714 10.6467 17.5714 12.2129V12.215V12.2183C17.5714 13.7772 17.4188 14.6732 17.1167 15.1842C16.8261 15.7011 16.5107 15.7949 15.8685 15.8384C15.2263 15.8752 13.6132 15.8973 12.2156 15.8973C10.8154 15.8973 9.20156 15.8752 8.56005 15.8377C7.9192 15.7942 7.60379 15.7004 7.31049 15.1835C7.01116 14.6725 6.85714 13.7766 6.85714 12.2176V12.2163V12.2143V12.2123C6.85714 10.6467 7.01116 9.75737 7.31049 9.24107C7.60379 8.72344 7.91987 8.62902 8.56071 8.59219C9.20156 8.54933 10.8154 8.53125 12.2156 8.53125C13.6132 8.53125 15.2263 8.54933 15.8679 8.59286ZM14.2232 12.2143L10.875 10.2054V14.2232L14.2232 12.2143Z" fill="#A1A1A7"/>
</svg>
